<?xml version="1.0" encoding="utf-8"?>
<svg xmlns="http://www.w3.org/2000/svg" xmlns:xlink="http://www.w3.org/1999/xlink" width="150" height="100" viewBox="0 0 600 400">
<defs>
  <clipPath id="clip010">
    <rect x="0" y="0" width="600" height="400"/>
  </clipPath>
</defs>
<path clip-path="url(#clip010)" d="
M0 400 L600 400 L600 0 L0 0  Z
  " fill="#ffffff" fill-rule="evenodd" fill-opacity="1"/>
<defs>
  <clipPath id="clip011">
    <rect x="120" y="0" width="421" height="400"/>
  </clipPath>
</defs>
<path clip-path="url(#clip010)" d="
M82.8255 371.612 L588.189 371.612 L588.189 11.811 L82.8255 11.811  Z
  " fill="#ffffff" fill-rule="evenodd" fill-opacity="1"/>
<defs>
  <clipPath id="clip012">
    <rect x="82" y="11" width="506" height="361"/>
  </clipPath>
</defs>
<polyline clip-path="url(#clip012)" style="stroke:#000000; stroke-width:0.5; stroke-opacity:0.1; fill:none" points="
  97.1283,371.612 97.1283,11.811 
  "/>
<polyline clip-path="url(#clip012)" style="stroke:#000000; stroke-width:0.5; stroke-opacity:0.1; fill:none" points="
  192.48,371.612 192.48,11.811 
  "/>
<polyline clip-path="url(#clip012)" style="stroke:#000000; stroke-width:0.5; stroke-opacity:0.1; fill:none" points="
  287.831,371.612 287.831,11.811 
  "/>
<polyline clip-path="url(#clip012)" style="stroke:#000000; stroke-width:0.5; stroke-opacity:0.1; fill:none" points="
  383.183,371.612 383.183,11.811 
  "/>
<polyline clip-path="url(#clip012)" style="stroke:#000000; stroke-width:0.5; stroke-opacity:0.1; fill:none" points="
  478.535,371.612 478.535,11.811 
  "/>
<polyline clip-path="url(#clip012)" style="stroke:#000000; stroke-width:0.5; stroke-opacity:0.1; fill:none" points="
  573.886,371.612 573.886,11.811 
  "/>
<polyline clip-path="url(#clip010)" style="stroke:#000000; stroke-width:1; stroke-opacity:1; fill:none" points="
  82.8255,371.612 588.189,371.612 
  "/>
<polyline clip-path="url(#clip010)" style="stroke:#000000; stroke-width:1; stroke-opacity:1; fill:none" points="
  97.1283,371.612 97.1283,367.294 
  "/>
<polyline clip-path="url(#clip010)" style="stroke:#000000; stroke-width:1; stroke-opacity:1; fill:none" points="
  192.48,371.612 192.48,367.294 
  "/>
<polyline clip-path="url(#clip010)" style="stroke:#000000; stroke-width:1; stroke-opacity:1; fill:none" points="
  287.831,371.612 287.831,367.294 
  "/>
<polyline clip-path="url(#clip010)" style="stroke:#000000; stroke-width:1; stroke-opacity:1; fill:none" points="
  383.183,371.612 383.183,367.294 
  "/>
<polyline clip-path="url(#clip010)" style="stroke:#000000; stroke-width:1; stroke-opacity:1; fill:none" points="
  478.535,371.612 478.535,367.294 
  "/>
<polyline clip-path="url(#clip010)" style="stroke:#000000; stroke-width:1; stroke-opacity:1; fill:none" points="
  573.886,371.612 573.886,367.294 
  "/>
<path clip-path="url(#clip010)" d="M 0 0 M94.7238 385.796 L96.6335 385.796 L96.6335 379.205 L94.556 379.621 L94.556 378.557 L96.6219 378.14 L97.7909 378.14 L97.7909 385.796 L99.7006 385.796 L99.7006 386.78 L94.7238 386.78 L94.7238 385.796 Z" fill="#000000" fill-rule="evenodd" fill-opacity="1" /><path clip-path="url(#clip010)" d="M 0 0 M191.143 385.796 L195.223 385.796 L195.223 386.78 L189.737 386.78 L189.737 385.796 Q190.402 385.108 191.548 383.95 Q192.7 382.787 192.995 382.451 Q193.556 381.821 193.776 381.386 Q194.002 380.947 194.002 380.524 Q194.002 379.836 193.516 379.402 Q193.035 378.968 192.26 378.968 Q191.71 378.968 191.097 379.158 Q190.489 379.349 189.795 379.737 L189.795 378.557 Q190.501 378.273 191.114 378.128 Q191.728 377.984 192.237 377.984 Q193.579 377.984 194.378 378.655 Q195.177 379.326 195.177 380.449 Q195.177 380.981 194.974 381.462 Q194.777 381.936 194.251 382.584 Q194.106 382.752 193.331 383.557 Q192.555 384.355 191.143 385.796 Z" fill="#000000" fill-rule="evenodd" fill-opacity="1" /><path clip-path="url(#clip010)" d="M 0 0 M288.893 382.121 Q289.732 382.301 290.201 382.868 Q290.676 383.435 290.676 384.268 Q290.676 385.547 289.796 386.248 Q288.917 386.948 287.296 386.948 Q286.752 386.948 286.173 386.838 Q285.601 386.734 284.987 386.52 L284.987 385.391 Q285.473 385.675 286.052 385.819 Q286.631 385.964 287.261 385.964 Q288.361 385.964 288.934 385.53 Q289.513 385.096 289.513 384.268 Q289.513 383.505 288.974 383.076 Q288.442 382.642 287.487 382.642 L286.48 382.642 L286.48 381.682 L287.533 381.682 Q288.396 381.682 288.853 381.34 Q289.31 380.993 289.31 380.345 Q289.31 379.679 288.836 379.326 Q288.367 378.968 287.487 378.968 Q287.007 378.968 286.457 379.072 Q285.907 379.176 285.248 379.396 L285.248 378.354 Q285.913 378.169 286.492 378.076 Q287.076 377.984 287.591 377.984 Q288.922 377.984 289.698 378.591 Q290.473 379.193 290.473 380.223 Q290.473 380.941 290.062 381.439 Q289.651 381.93 288.893 382.121 Z" fill="#000000" fill-rule="evenodd" fill-opacity="1" /><path clip-path="url(#clip010)" d="M 0 0 M383.935 379.158 L380.984 383.771 L383.935 383.771 L383.935 379.158 M383.629 378.14 L385.099 378.14 L385.099 383.771 L386.331 383.771 L386.331 384.743 L385.099 384.743 L385.099 386.78 L383.935 386.78 L383.935 384.743 L380.035 384.743 L380.035 383.614 L383.629 378.14 Z" fill="#000000" fill-rule="evenodd" fill-opacity="1" /><path clip-path="url(#clip010)" d="M 0 0 M476.104 378.14 L480.693 378.14 L480.693 379.124 L477.175 379.124 L477.175 381.242 Q477.429 381.155 477.684 381.114 Q477.939 381.068 478.193 381.068 Q479.64 381.068 480.485 381.861 Q481.33 382.654 481.33 384.008 Q481.33 385.403 480.462 386.178 Q479.594 386.948 478.014 386.948 Q477.47 386.948 476.903 386.855 Q476.341 386.763 475.74 386.577 L475.74 385.403 Q476.26 385.686 476.816 385.825 Q477.371 385.964 477.991 385.964 Q478.992 385.964 479.576 385.437 Q480.161 384.911 480.161 384.008 Q480.161 383.105 479.576 382.579 Q478.992 382.052 477.991 382.052 Q477.522 382.052 477.053 382.156 Q476.59 382.26 476.104 382.48 L476.104 378.14 Z" fill="#000000" fill-rule="evenodd" fill-opacity="1" /><path clip-path="url(#clip010)" d="M 0 0 M573.988 381.994 Q573.2 381.994 572.738 382.532 Q572.28 383.07 572.28 384.008 Q572.28 384.94 572.738 385.484 Q573.2 386.022 573.988 386.022 Q574.775 386.022 575.232 385.484 Q575.695 384.94 575.695 384.008 Q575.695 383.07 575.232 382.532 Q574.775 381.994 573.988 381.994 M576.308 378.331 L576.308 379.396 Q575.868 379.187 575.417 379.077 Q574.971 378.968 574.531 378.968 Q573.374 378.968 572.761 379.749 Q572.153 380.53 572.066 382.11 Q572.408 381.606 572.923 381.34 Q573.438 381.068 574.057 381.068 Q575.359 381.068 576.111 381.861 Q576.869 382.648 576.869 384.008 Q576.869 385.339 576.082 386.143 Q575.295 386.948 573.988 386.948 Q572.489 386.948 571.696 385.802 Q570.903 384.65 570.903 382.469 Q570.903 380.42 571.875 379.205 Q572.847 377.984 574.485 377.984 Q574.925 377.984 575.371 378.071 Q575.822 378.157 576.308 378.331 Z" fill="#000000" fill-rule="evenodd" fill-opacity="1" /><polyline clip-path="url(#clip012)" style="stroke:#000000; stroke-width:0.5; stroke-opacity:0.1; fill:none" points="
  82.8255,317.94 588.189,317.94 
  "/>
<polyline clip-path="url(#clip012)" style="stroke:#000000; stroke-width:0.5; stroke-opacity:0.1; fill:none" points="
  82.8255,245.075 588.189,245.075 
  "/>
<polyline clip-path="url(#clip012)" style="stroke:#000000; stroke-width:0.5; stroke-opacity:0.1; fill:none" points="
  82.8255,172.211 588.189,172.211 
  "/>
<polyline clip-path="url(#clip012)" style="stroke:#000000; stroke-width:0.5; stroke-opacity:0.1; fill:none" points="
  82.8255,99.3461 588.189,99.3461 
  "/>
<polyline clip-path="url(#clip012)" style="stroke:#000000; stroke-width:0.5; stroke-opacity:0.1; fill:none" points="
  82.8255,26.4815 588.189,26.4815 
  "/>
<polyline clip-path="url(#clip010)" style="stroke:#000000; stroke-width:1; stroke-opacity:1; fill:none" points="
  82.8255,371.612 82.8255,11.811 
  "/>
<polyline clip-path="url(#clip010)" style="stroke:#000000; stroke-width:1; stroke-opacity:1; fill:none" points="
  82.8255,317.94 88.8899,317.94 
  "/>
<polyline clip-path="url(#clip010)" style="stroke:#000000; stroke-width:1; stroke-opacity:1; fill:none" points="
  82.8255,245.075 88.8899,245.075 
  "/>
<polyline clip-path="url(#clip010)" style="stroke:#000000; stroke-width:1; stroke-opacity:1; fill:none" points="
  82.8255,172.211 88.8899,172.211 
  "/>
<polyline clip-path="url(#clip010)" style="stroke:#000000; stroke-width:1; stroke-opacity:1; fill:none" points="
  82.8255,99.3461 88.8899,99.3461 
  "/>
<polyline clip-path="url(#clip010)" style="stroke:#000000; stroke-width:1; stroke-opacity:1; fill:none" points="
  82.8255,26.4815 88.8899,26.4815 
  "/>
<path clip-path="url(#clip010)" d="M 0 0 M12.9737 319.665 L20.3927 319.665 L20.3927 320.648 L12.9737 320.648 L12.9737 319.665 Z" fill="#000000" fill-rule="evenodd" fill-opacity="1" /><path clip-path="url(#clip010)" d="M 0 0 M21.3649 315.232 L26.9204 315.232 L26.9204 315.729 L23.7839 323.872 L22.5628 323.872 L25.5142 316.216 L21.3649 316.216 L21.3649 315.232 Z" fill="#000000" fill-rule="evenodd" fill-opacity="1" /><path clip-path="url(#clip010)" d="M 0 0 M28.1878 322.402 L29.4088 322.402 L29.4088 323.872 L28.1878 323.872 L28.1878 322.402 Z" fill="#000000" fill-rule="evenodd" fill-opacity="1" /><path clip-path="url(#clip010)" d="M 0 0 M30.6878 315.232 L35.2768 315.232 L35.2768 316.216 L31.7583 316.216 L31.7583 318.334 Q32.013 318.247 32.2676 318.206 Q32.5222 318.16 32.7769 318.16 Q34.2236 318.16 35.0685 318.953 Q35.9134 319.746 35.9134 321.1 Q35.9134 322.494 35.0454 323.27 Q34.1773 324.04 32.5975 324.04 Q32.0535 324.04 31.4864 323.947 Q30.925 323.854 30.3232 323.669 L30.3232 322.494 Q30.844 322.778 31.3996 322.917 Q31.9551 323.056 32.5743 323.056 Q33.5755 323.056 34.16 322.529 Q34.7444 322.003 34.7444 321.1 Q34.7444 320.197 34.16 319.67 Q33.5755 319.144 32.5743 319.144 Q32.1056 319.144 31.6368 319.248 Q31.1739 319.352 30.6878 319.572 L30.6878 315.232 Z" fill="#000000" fill-rule="evenodd" fill-opacity="1" /><path clip-path="url(#clip010)" d="M 0 0 M39.6808 316.001 Q38.778 316.001 38.3208 316.893 Q37.8694 317.778 37.8694 319.56 Q37.8694 321.337 38.3208 322.228 Q38.778 323.114 39.6808 323.114 Q40.5893 323.114 41.0407 322.228 Q41.4979 321.337 41.4979 319.56 Q41.4979 317.778 41.0407 316.893 Q40.5893 316.001 39.6808 316.001 M39.6808 315.075 Q41.1333 315.075 41.8972 316.227 Q42.6669 317.373 42.6669 319.56 Q42.6669 321.742 41.8972 322.894 Q41.1333 324.04 39.6808 324.04 Q38.2282 324.04 37.4585 322.894 Q36.6947 321.742 36.6947 319.56 Q36.6947 317.373 37.4585 316.227 Q38.2282 315.075 39.6808 315.075 Z" fill="#000000" fill-rule="evenodd" fill-opacity="1" /><path clip-path="url(#clip010)" d="M 0 0 M50.977 317.506 L48.3323 320.162 L50.977 322.807 L50.2883 323.507 L47.6321 320.851 L44.9759 323.507 L44.293 322.807 L46.9319 320.162 L44.293 317.506 L44.9759 316.806 L47.6321 319.462 L50.2883 316.806 L50.977 317.506 Z" fill="#000000" fill-rule="evenodd" fill-opacity="1" /><path clip-path="url(#clip010)" d="M 0 0 M52.4469 322.888 L54.3566 322.888 L54.3566 316.297 L52.2791 316.713 L52.2791 315.648 L54.345 315.232 L55.514 315.232 L55.514 322.888 L57.4237 322.888 L57.4237 323.872 L52.4469 323.872 L52.4469 322.888 Z" fill="#000000" fill-rule="evenodd" fill-opacity="1" /><path clip-path="url(#clip010)" d="M 0 0 M61.1911 316.001 Q60.2883 316.001 59.8311 316.893 Q59.3797 317.778 59.3797 319.56 Q59.3797 321.337 59.8311 322.228 Q60.2883 323.114 61.1911 323.114 Q62.0996 323.114 62.551 322.228 Q63.0082 321.337 63.0082 319.56 Q63.0082 317.778 62.551 316.893 Q62.0996 316.001 61.1911 316.001 M61.1911 315.075 Q62.6436 315.075 63.4075 316.227 Q64.1772 317.373 64.1772 319.56 Q64.1772 321.742 63.4075 322.894 Q62.6436 324.04 61.1911 324.04 Q59.7385 324.04 58.9688 322.894 Q58.205 321.742 58.205 319.56 Q58.205 317.373 58.9688 316.227 Q59.7385 315.075 61.1911 315.075 Z" fill="#000000" fill-rule="evenodd" fill-opacity="1" /><path clip-path="url(#clip010)" d="M 0 0 M64.3135 316.22 L65.8652 316.22 L65.8652 310.864 L64.1772 311.203 L64.1772 310.338 L65.8557 309.999 L66.8055 309.999 L66.8055 316.22 L68.3572 316.22 L68.3572 317.019 L64.3135 317.019 L64.3135 316.22 Z" fill="#000000" fill-rule="evenodd" fill-opacity="1" /><path clip-path="url(#clip010)" d="M 0 0 M71.4181 313.685 Q70.7411 313.685 70.3508 314.048 Q69.9652 314.41 69.9652 315.044 Q69.9652 315.679 70.3508 316.041 Q70.7411 316.403 71.4181 316.403 Q72.0952 316.403 72.4855 316.041 Q72.8757 315.674 72.8757 315.044 Q72.8757 314.41 72.4855 314.048 Q72.0999 313.685 71.4181 313.685 M70.4684 313.281 Q69.8571 313.131 69.5139 312.712 Q69.1753 312.294 69.1753 311.692 Q69.1753 310.85 69.7725 310.361 Q70.3743 309.872 71.4181 309.872 Q72.4667 309.872 73.0638 310.361 Q73.661 310.85 73.661 311.692 Q73.661 312.294 73.3177 312.712 Q72.9792 313.131 72.3726 313.281 Q73.0591 313.441 73.44 313.906 Q73.8255 314.372 73.8255 315.044 Q73.8255 316.065 73.2002 316.61 Q72.5795 317.156 71.4181 317.156 Q70.2568 317.156 69.6314 316.61 Q69.0108 316.065 69.0108 315.044 Q69.0108 314.372 69.3963 313.906 Q69.7819 313.441 70.4684 313.281 M70.1204 311.781 Q70.1204 312.327 70.4589 312.632 Q70.8022 312.938 71.4181 312.938 Q72.0294 312.938 72.3726 312.632 Q72.7206 312.327 72.7206 311.781 Q72.7206 311.236 72.3726 310.93 Q72.0294 310.625 71.4181 310.625 Q70.8022 310.625 70.4589 310.93 Q70.1204 311.236 70.1204 311.781 Z" fill="#000000" fill-rule="evenodd" fill-opacity="1" /><path clip-path="url(#clip010)" d="M 0 0 M12.748 246.8 L20.167 246.8 L20.167 247.784 L12.748 247.784 L12.748 246.8 Z" fill="#000000" fill-rule="evenodd" fill-opacity="1" /><path clip-path="url(#clip010)" d="M 0 0 M21.4459 242.367 L26.035 242.367 L26.035 243.351 L22.5165 243.351 L22.5165 245.469 Q22.7711 245.382 23.0258 245.342 Q23.2804 245.295 23.535 245.295 Q24.9818 245.295 25.8267 246.088 Q26.6716 246.881 26.6716 248.235 Q26.6716 249.63 25.8035 250.405 Q24.9355 251.175 23.3556 251.175 Q22.8116 251.175 22.2445 251.082 Q21.6832 250.99 21.0813 250.805 L21.0813 249.63 Q21.6022 249.913 22.1577 250.052 Q22.7133 250.191 23.3325 250.191 Q24.3336 250.191 24.9181 249.665 Q25.5026 249.138 25.5026 248.235 Q25.5026 247.332 24.9181 246.806 Q24.3336 246.279 23.3325 246.279 Q22.8637 246.279 22.395 246.383 Q21.932 246.487 21.4459 246.707 L21.4459 242.367 Z" fill="#000000" fill-rule="evenodd" fill-opacity="1" /><path clip-path="url(#clip010)" d="M 0 0 M27.9389 249.537 L29.16 249.537 L29.16 251.007 L27.9389 251.007 L27.9389 249.537 Z" fill="#000000" fill-rule="evenodd" fill-opacity="1" /><path clip-path="url(#clip010)" d="M 0 0 M32.9273 243.137 Q32.0245 243.137 31.5674 244.028 Q31.116 244.913 31.116 246.696 Q31.116 248.472 31.5674 249.364 Q32.0245 250.249 32.9273 250.249 Q33.8359 250.249 34.2873 249.364 Q34.7444 248.472 34.7444 246.696 Q34.7444 244.913 34.2873 244.028 Q33.8359 243.137 32.9273 243.137 M32.9273 242.211 Q34.3799 242.211 35.1437 243.363 Q35.9134 244.508 35.9134 246.696 Q35.9134 248.878 35.1437 250.029 Q34.3799 251.175 32.9273 251.175 Q31.4748 251.175 30.7051 250.029 Q29.9412 248.878 29.9412 246.696 Q29.9412 244.508 30.7051 243.363 Q31.4748 242.211 32.9273 242.211 Z" fill="#000000" fill-rule="evenodd" fill-opacity="1" /><path clip-path="url(#clip010)" d="M 0 0 M39.6808 243.137 Q38.778 243.137 38.3208 244.028 Q37.8694 244.913 37.8694 246.696 Q37.8694 248.472 38.3208 249.364 Q38.778 250.249 39.6808 250.249 Q40.5893 250.249 41.0407 249.364 Q41.4979 248.472 41.4979 246.696 Q41.4979 244.913 41.0407 244.028 Q40.5893 243.137 39.6808 243.137 M39.6808 242.211 Q41.1333 242.211 41.8972 243.363 Q42.6669 244.508 42.6669 246.696 Q42.6669 248.878 41.8972 250.029 Q41.1333 251.175 39.6808 251.175 Q38.2282 251.175 37.4585 250.029 Q36.6947 248.878 36.6947 246.696 Q36.6947 244.508 37.4585 243.363 Q38.2282 242.211 39.6808 242.211 Z" fill="#000000" fill-rule="evenodd" fill-opacity="1" /><path clip-path="url(#clip010)" d="M 0 0 M50.977 244.641 L48.3323 247.298 L50.977 249.942 L50.2883 250.643 L47.6321 247.986 L44.9759 250.643 L44.293 249.942 L46.9319 247.298 L44.293 244.641 L44.9759 243.941 L47.6321 246.597 L50.2883 243.941 L50.977 244.641 Z" fill="#000000" fill-rule="evenodd" fill-opacity="1" /><path clip-path="url(#clip010)" d="M 0 0 M52.4469 250.023 L54.3566 250.023 L54.3566 243.432 L52.2791 243.849 L52.2791 242.784 L54.345 242.367 L55.514 242.367 L55.514 250.023 L57.4237 250.023 L57.4237 251.007 L52.4469 251.007 L52.4469 250.023 Z" fill="#000000" fill-rule="evenodd" fill-opacity="1" /><path clip-path="url(#clip010)" d="M 0 0 M61.1911 243.137 Q60.2883 243.137 59.8311 244.028 Q59.3797 244.913 59.3797 246.696 Q59.3797 248.472 59.8311 249.364 Q60.2883 250.249 61.1911 250.249 Q62.0996 250.249 62.551 249.364 Q63.0082 248.472 63.0082 246.696 Q63.0082 244.913 62.551 244.028 Q62.0996 243.137 61.1911 243.137 M61.1911 242.211 Q62.6436 242.211 63.4075 243.363 Q64.1772 244.508 64.1772 246.696 Q64.1772 248.878 63.4075 250.029 Q62.6436 251.175 61.1911 251.175 Q59.7385 251.175 58.9688 250.029 Q58.205 248.878 58.205 246.696 Q58.205 244.508 58.9688 243.363 Q59.7385 242.211 61.1911 242.211 Z" fill="#000000" fill-rule="evenodd" fill-opacity="1" /><path clip-path="url(#clip010)" d="M 0 0 M64.3135 243.355 L65.8652 243.355 L65.8652 238 L64.1772 238.338 L64.1772 237.473 L65.8557 237.135 L66.8055 237.135 L66.8055 243.355 L68.3572 243.355 L68.3572 244.155 L64.3135 244.155 L64.3135 243.355 Z" fill="#000000" fill-rule="evenodd" fill-opacity="1" /><path clip-path="url(#clip010)" d="M 0 0 M71.4181 240.821 Q70.7411 240.821 70.3508 241.183 Q69.9652 241.545 69.9652 242.18 Q69.9652 242.814 70.3508 243.177 Q70.7411 243.539 71.4181 243.539 Q72.0952 243.539 72.4855 243.177 Q72.8757 242.81 72.8757 242.18 Q72.8757 241.545 72.4855 241.183 Q72.0999 240.821 71.4181 240.821 M70.4684 240.417 Q69.8571 240.266 69.5139 239.848 Q69.1753 239.429 69.1753 238.827 Q69.1753 237.986 69.7725 237.497 Q70.3743 237.008 71.4181 237.008 Q72.4667 237.008 73.0638 237.497 Q73.661 237.986 73.661 238.827 Q73.661 239.429 73.3177 239.848 Q72.9792 240.266 72.3726 240.417 Q73.0591 240.576 73.44 241.042 Q73.8255 241.507 73.8255 242.18 Q73.8255 243.2 73.2002 243.745 Q72.5795 244.291 71.4181 244.291 Q70.2568 244.291 69.6314 243.745 Q69.0108 243.2 69.0108 242.18 Q69.0108 241.507 69.3963 241.042 Q69.7819 240.576 70.4684 240.417 M70.1204 238.917 Q70.1204 239.462 70.4589 239.768 Q70.8022 240.073 71.4181 240.073 Q72.0294 240.073 72.3726 239.768 Q72.7206 239.462 72.7206 238.917 Q72.7206 238.371 72.3726 238.066 Q72.0294 237.76 71.4181 237.76 Q70.8022 237.76 70.4589 238.066 Q70.1204 238.371 70.1204 238.917 Z" fill="#000000" fill-rule="evenodd" fill-opacity="1" /><path clip-path="url(#clip010)" d="M 0 0 M13.1473 173.935 L20.5663 173.935 L20.5663 174.919 L13.1473 174.919 L13.1473 173.935 Z" fill="#000000" fill-rule="evenodd" fill-opacity="1" /><path clip-path="url(#clip010)" d="M 0 0 M22.8406 177.159 L26.9204 177.159 L26.9204 178.143 L21.4343 178.143 L21.4343 177.159 Q22.0998 176.47 23.2457 175.313 Q24.3973 174.15 24.6924 173.814 Q25.2538 173.183 25.4737 172.749 Q25.6994 172.309 25.6994 171.887 Q25.6994 171.198 25.2132 170.764 Q24.7329 170.33 23.9575 170.33 Q23.4077 170.33 22.7943 170.521 Q22.1866 170.712 21.4922 171.1 L21.4922 169.919 Q22.1982 169.636 22.8116 169.491 Q23.4251 169.346 23.9343 169.346 Q25.2769 169.346 26.0755 170.018 Q26.8741 170.689 26.8741 171.812 Q26.8741 172.344 26.6716 172.824 Q26.4748 173.299 25.9482 173.947 Q25.8035 174.115 25.0281 174.919 Q24.2526 175.718 22.8406 177.159 Z" fill="#000000" fill-rule="evenodd" fill-opacity="1" /><path clip-path="url(#clip010)" d="M 0 0 M28.1878 176.673 L29.4088 176.673 L29.4088 178.143 L28.1878 178.143 L28.1878 176.673 Z" fill="#000000" fill-rule="evenodd" fill-opacity="1" /><path clip-path="url(#clip010)" d="M 0 0 M30.6878 169.503 L35.2768 169.503 L35.2768 170.486 L31.7583 170.486 L31.7583 172.604 Q32.013 172.518 32.2676 172.477 Q32.5222 172.431 32.7769 172.431 Q34.2236 172.431 35.0685 173.224 Q35.9134 174.016 35.9134 175.371 Q35.9134 176.765 35.0454 177.541 Q34.1773 178.31 32.5975 178.31 Q32.0535 178.31 31.4864 178.218 Q30.925 178.125 30.3232 177.94 L30.3232 176.765 Q30.844 177.049 31.3996 177.188 Q31.9551 177.327 32.5743 177.327 Q33.5755 177.327 34.16 176.8 Q34.7444 176.273 34.7444 175.371 Q34.7444 174.468 34.16 173.941 Q33.5755 173.415 32.5743 173.415 Q32.1056 173.415 31.6368 173.519 Q31.1739 173.623 30.6878 173.843 L30.6878 169.503 Z" fill="#000000" fill-rule="evenodd" fill-opacity="1" /><path clip-path="url(#clip010)" d="M 0 0 M39.6808 170.272 Q38.778 170.272 38.3208 171.163 Q37.8694 172.049 37.8694 173.831 Q37.8694 175.608 38.3208 176.499 Q38.778 177.384 39.6808 177.384 Q40.5893 177.384 41.0407 176.499 Q41.4979 175.608 41.4979 173.831 Q41.4979 172.049 41.0407 171.163 Q40.5893 170.272 39.6808 170.272 M39.6808 169.346 Q41.1333 169.346 41.8972 170.498 Q42.6669 171.644 42.6669 173.831 Q42.6669 176.013 41.8972 177.165 Q41.1333 178.31 39.6808 178.31 Q38.2282 178.31 37.4585 177.165 Q36.6947 176.013 36.6947 173.831 Q36.6947 171.644 37.4585 170.498 Q38.2282 169.346 39.6808 169.346 Z" fill="#000000" fill-rule="evenodd" fill-opacity="1" /><path clip-path="url(#clip010)" d="M 0 0 M50.977 171.777 L48.3323 174.433 L50.977 177.078 L50.2883 177.778 L47.6321 175.122 L44.9759 177.778 L44.293 177.078 L46.9319 174.433 L44.293 171.777 L44.9759 171.077 L47.6321 173.733 L50.2883 171.077 L50.977 171.777 Z" fill="#000000" fill-rule="evenodd" fill-opacity="1" /><path clip-path="url(#clip010)" d="M 0 0 M52.4469 177.159 L54.3566 177.159 L54.3566 170.567 L52.2791 170.984 L52.2791 169.919 L54.345 169.503 L55.514 169.503 L55.514 177.159 L57.4237 177.159 L57.4237 178.143 L52.4469 178.143 L52.4469 177.159 Z" fill="#000000" fill-rule="evenodd" fill-opacity="1" /><path clip-path="url(#clip010)" d="M 0 0 M61.1911 170.272 Q60.2883 170.272 59.8311 171.163 Q59.3797 172.049 59.3797 173.831 Q59.3797 175.608 59.8311 176.499 Q60.2883 177.384 61.1911 177.384 Q62.0996 177.384 62.551 176.499 Q63.0082 175.608 63.0082 173.831 Q63.0082 172.049 62.551 171.163 Q62.0996 170.272 61.1911 170.272 M61.1911 169.346 Q62.6436 169.346 63.4075 170.498 Q64.1772 171.644 64.1772 173.831 Q64.1772 176.013 63.4075 177.165 Q62.6436 178.31 61.1911 178.31 Q59.7385 178.31 58.9688 177.165 Q58.205 176.013 58.205 173.831 Q58.205 171.644 58.9688 170.498 Q59.7385 169.346 61.1911 169.346 Z" fill="#000000" fill-rule="evenodd" fill-opacity="1" /><path clip-path="url(#clip010)" d="M 0 0 M64.3135 170.491 L65.8652 170.491 L65.8652 165.135 L64.1772 165.474 L64.1772 164.608 L65.8557 164.27 L66.8055 164.27 L66.8055 170.491 L68.3572 170.491 L68.3572 171.29 L64.3135 171.29 L64.3135 170.491 Z" fill="#000000" fill-rule="evenodd" fill-opacity="1" /><path clip-path="url(#clip010)" d="M 0 0 M71.4181 167.956 Q70.7411 167.956 70.3508 168.318 Q69.9652 168.68 69.9652 169.315 Q69.9652 169.95 70.3508 170.312 Q70.7411 170.674 71.4181 170.674 Q72.0952 170.674 72.4855 170.312 Q72.8757 169.945 72.8757 169.315 Q72.8757 168.68 72.4855 168.318 Q72.0999 167.956 71.4181 167.956 M70.4684 167.552 Q69.8571 167.401 69.5139 166.983 Q69.1753 166.564 69.1753 165.963 Q69.1753 165.121 69.7725 164.632 Q70.3743 164.143 71.4181 164.143 Q72.4667 164.143 73.0638 164.632 Q73.661 165.121 73.661 165.963 Q73.661 166.564 73.3177 166.983 Q72.9792 167.401 72.3726 167.552 Q73.0591 167.712 73.44 168.177 Q73.8255 168.643 73.8255 169.315 Q73.8255 170.335 73.2002 170.881 Q72.5795 171.426 71.4181 171.426 Q70.2568 171.426 69.6314 170.881 Q69.0108 170.335 69.0108 169.315 Q69.0108 168.643 69.3963 168.177 Q69.7819 167.712 70.4684 167.552 M70.1204 166.052 Q70.1204 166.597 70.4589 166.903 Q70.8022 167.209 71.4181 167.209 Q72.0294 167.209 72.3726 166.903 Q72.7206 166.597 72.7206 166.052 Q72.7206 165.507 72.3726 165.201 Q72.0294 164.895 71.4181 164.895 Q70.8022 164.895 70.4589 165.201 Q70.1204 165.507 70.1204 166.052 Z" fill="#000000" fill-rule="evenodd" fill-opacity="1" /><path clip-path="url(#clip010)" d="M 0 0 M70.8394 95.7957 Q69.9367 95.7957 69.4795 96.6869 Q69.0281 97.5723 69.0281 99.3547 Q69.0281 101.131 69.4795 102.023 Q69.9367 102.908 70.8394 102.908 Q71.748 102.908 72.1994 102.023 Q72.6566 101.131 72.6566 99.3547 Q72.6566 97.5723 72.1994 96.6869 Q71.748 95.7957 70.8394 95.7957 M70.8394 94.8698 Q72.292 94.8698 73.0559 96.0214 Q73.8255 97.1672 73.8255 99.3547 Q73.8255 101.536 73.0559 102.688 Q72.292 103.834 70.8394 103.834 Q69.3869 103.834 68.6172 102.688 Q67.8533 101.536 67.8533 99.3547 Q67.8533 97.1672 68.6172 96.0214 Q69.3869 94.8698 70.8394 94.8698 Z" fill="#000000" fill-rule="evenodd" fill-opacity="1" /><path clip-path="url(#clip010)" d="M 0 0 M22.8406 31.4296 L26.9204 31.4296 L26.9204 32.4134 L21.4343 32.4134 L21.4343 31.4296 Q22.0998 30.7409 23.2457 29.5835 Q24.3973 28.4203 24.6924 28.0847 Q25.2538 27.4539 25.4737 27.0199 Q25.6994 26.5801 25.6994 26.1576 Q25.6994 25.4689 25.2132 25.0349 Q24.7329 24.6009 23.9575 24.6009 Q23.4077 24.6009 22.7943 24.7919 Q22.1866 24.9828 21.4922 25.3706 L21.4922 24.19 Q22.1982 23.9065 22.8116 23.7618 Q23.4251 23.6171 23.9343 23.6171 Q25.2769 23.6171 26.0755 24.2884 Q26.8741 24.9597 26.8741 26.0824 Q26.8741 26.6148 26.6716 27.0951 Q26.4748 27.5696 25.9482 28.2178 Q25.8035 28.3856 25.0281 29.19 Q24.2526 29.9886 22.8406 31.4296 Z" fill="#000000" fill-rule="evenodd" fill-opacity="1" /><path clip-path="url(#clip010)" d="M 0 0 M28.1878 30.9435 L29.4088 30.9435 L29.4088 32.4134 L28.1878 32.4134 L28.1878 30.9435 Z" fill="#000000" fill-rule="evenodd" fill-opacity="1" /><path clip-path="url(#clip010)" d="M 0 0 M30.6878 23.7734 L35.2768 23.7734 L35.2768 24.7571 L31.7583 24.7571 L31.7583 26.8752 Q32.013 26.7884 32.2676 26.7479 Q32.5222 26.7016 32.7769 26.7016 Q34.2236 26.7016 35.0685 27.4944 Q35.9134 28.2872 35.9134 29.6414 Q35.9134 31.036 35.0454 31.8115 Q34.1773 32.5812 32.5975 32.5812 Q32.0535 32.5812 31.4864 32.4886 Q30.925 32.396 30.3232 32.2108 L30.3232 31.036 Q30.844 31.3196 31.3996 31.4585 Q31.9551 31.5974 32.5743 31.5974 Q33.5755 31.5974 34.16 31.0708 Q34.7444 30.5442 34.7444 29.6414 Q34.7444 28.7386 34.16 28.212 Q33.5755 27.6854 32.5743 27.6854 Q32.1056 27.6854 31.6368 27.7895 Q31.1739 27.8937 30.6878 28.1136 L30.6878 23.7734 Z" fill="#000000" fill-rule="evenodd" fill-opacity="1" /><path clip-path="url(#clip010)" d="M 0 0 M39.6808 24.543 Q38.778 24.543 38.3208 25.4342 Q37.8694 26.3196 37.8694 28.102 Q37.8694 29.8786 38.3208 30.7698 Q38.778 31.6553 39.6808 31.6553 Q40.5893 31.6553 41.0407 30.7698 Q41.4979 29.8786 41.4979 28.102 Q41.4979 26.3196 41.0407 25.4342 Q40.5893 24.543 39.6808 24.543 M39.6808 23.6171 Q41.1333 23.6171 41.8972 24.7687 Q42.6669 25.9145 42.6669 28.102 Q42.6669 30.2837 41.8972 31.4354 Q41.1333 32.5812 39.6808 32.5812 Q38.2282 32.5812 37.4585 31.4354 Q36.6947 30.2837 36.6947 28.102 Q36.6947 25.9145 37.4585 24.7687 Q38.2282 23.6171 39.6808 23.6171 Z" fill="#000000" fill-rule="evenodd" fill-opacity="1" /><path clip-path="url(#clip010)" d="M 0 0 M50.977 26.0476 L48.3323 28.7039 L50.977 31.3485 L50.2883 32.0488 L47.6321 29.3925 L44.9759 32.0488 L44.293 31.3485 L46.9319 28.7039 L44.293 26.0476 L44.9759 25.3474 L47.6321 28.0037 L50.2883 25.3474 L50.977 26.0476 Z" fill="#000000" fill-rule="evenodd" fill-opacity="1" /><path clip-path="url(#clip010)" d="M 0 0 M52.4469 31.4296 L54.3566 31.4296 L54.3566 24.8382 L52.2791 25.2548 L52.2791 24.19 L54.345 23.7734 L55.514 23.7734 L55.514 31.4296 L57.4237 31.4296 L57.4237 32.4134 L52.4469 32.4134 L52.4469 31.4296 Z" fill="#000000" fill-rule="evenodd" fill-opacity="1" /><path clip-path="url(#clip010)" d="M 0 0 M61.1911 24.543 Q60.2883 24.543 59.8311 25.4342 Q59.3797 26.3196 59.3797 28.102 Q59.3797 29.8786 59.8311 30.7698 Q60.2883 31.6553 61.1911 31.6553 Q62.0996 31.6553 62.551 30.7698 Q63.0082 29.8786 63.0082 28.102 Q63.0082 26.3196 62.551 25.4342 Q62.0996 24.543 61.1911 24.543 M61.1911 23.6171 Q62.6436 23.6171 63.4075 24.7687 Q64.1772 25.9145 64.1772 28.102 Q64.1772 30.2837 63.4075 31.4354 Q62.6436 32.5812 61.1911 32.5812 Q59.7385 32.5812 58.9688 31.4354 Q58.205 30.2837 58.205 28.102 Q58.205 25.9145 58.9688 24.7687 Q59.7385 23.6171 61.1911 23.6171 Z" fill="#000000" fill-rule="evenodd" fill-opacity="1" /><path clip-path="url(#clip010)" d="M 0 0 M64.3135 24.7614 L65.8652 24.7614 L65.8652 19.4059 L64.1772 19.7445 L64.1772 18.8793 L65.8557 18.5408 L66.8055 18.5408 L66.8055 24.7614 L68.3572 24.7614 L68.3572 25.5608 L64.3135 25.5608 L64.3135 24.7614 Z" fill="#000000" fill-rule="evenodd" fill-opacity="1" /><path clip-path="url(#clip010)" d="M 0 0 M71.4181 22.2271 Q70.7411 22.2271 70.3508 22.5891 Q69.9652 22.9512 69.9652 23.5859 Q69.9652 24.2207 70.3508 24.5828 Q70.7411 24.9448 71.4181 24.9448 Q72.0952 24.9448 72.4855 24.5828 Q72.8757 24.216 72.8757 23.5859 Q72.8757 22.9512 72.4855 22.5891 Q72.0999 22.2271 71.4181 22.2271 M70.4684 21.8227 Q69.8571 21.6722 69.5139 21.2538 Q69.1753 20.8353 69.1753 20.2335 Q69.1753 19.3918 69.7725 18.9028 Q70.3743 18.4138 71.4181 18.4138 Q72.4667 18.4138 73.0638 18.9028 Q73.661 19.3918 73.661 20.2335 Q73.661 20.8353 73.3177 21.2538 Q72.9792 21.6722 72.3726 21.8227 Q73.0591 21.9826 73.44 22.4481 Q73.8255 22.9136 73.8255 23.5859 Q73.8255 24.6063 73.2002 25.1517 Q72.5795 25.6971 71.4181 25.6971 Q70.2568 25.6971 69.6314 25.1517 Q69.0108 24.6063 69.0108 23.5859 Q69.0108 22.9136 69.3963 22.4481 Q69.7819 21.9826 70.4684 21.8227 M70.1204 20.3228 Q70.1204 20.8682 70.4589 21.1738 Q70.8022 21.4795 71.4181 21.4795 Q72.0294 21.4795 72.3726 21.1738 Q72.7206 20.8682 72.7206 20.3228 Q72.7206 19.7774 72.3726 19.4717 Q72.0294 19.1661 71.4181 19.1661 Q70.8022 19.1661 70.4589 19.4717 Q70.1204 19.7774 70.1204 20.3228 Z" fill="#000000" fill-rule="evenodd" fill-opacity="1" /><polyline clip-path="url(#clip012)" style="stroke:#009af9; stroke-width:1; stroke-opacity:1; fill:none" points="
  97.1283,307.932 192.48,189.978 287.831,361.429 383.183,60.7113 478.535,115.317 573.886,21.9941 
  "/>
<path clip-path="url(#clip010)" d="
M502.437 54.0444 L571.344 54.0444 L571.344 23.8044 L502.437 23.8044  Z
  " fill="#ffffff" fill-rule="evenodd" fill-opacity="1"/>
<polyline clip-path="url(#clip010)" style="stroke:#000000; stroke-width:1; stroke-opacity:1; fill:none" points="
  502.437,54.0444 571.344,54.0444 571.344,23.8044 502.437,23.8044 502.437,54.0444 
  "/>
<polyline clip-path="url(#clip010)" style="stroke:#009af9; stroke-width:1; stroke-opacity:1; fill:none" points="
  508.053,38.9244 541.744,38.9244 
  "/>
<path clip-path="url(#clip010)" d="M 0 0 M550.819 43.8462 Q550.368 45.0036 549.94 45.3566 Q549.511 45.7097 548.794 45.7097 L547.943 45.7097 L547.943 44.8185 L548.568 44.8185 Q549.008 44.8185 549.251 44.6101 Q549.494 44.4018 549.789 43.6263 L549.98 43.1402 L547.359 36.7629 L548.487 36.7629 L550.513 41.8324 L552.538 36.7629 L553.667 36.7629 L550.819 43.8462 Z" fill="#000000" fill-rule="evenodd" fill-opacity="1" /><path clip-path="url(#clip010)" d="M 0 0 M555.136 42.2606 L557.046 42.2606 L557.046 35.6692 L554.969 36.0859 L554.969 35.0211 L557.035 34.6044 L558.204 34.6044 L558.204 42.2606 L560.113 42.2606 L560.113 43.2444 L555.136 43.2444 L555.136 42.2606 Z" fill="#000000" fill-rule="evenodd" fill-opacity="1" /></svg>
